<svg width="78" height="56" viewBox="0 0 78 56" fill="none" xmlns="http://www.w3.org/2000/svg">
<path d="M49 16.8406C49 16.8141 49 16.8141 48.9745 16.7875V16.7344C48.9745 16.7078 48.949 16.7078 48.949 16.6812C48.949 16.6812 48.949 16.6547 48.9235 16.6547L39.4337 0.265625C39.4082 0.239063 39.3827 0.185938 39.3571 0.159375H39.3316C39.3061 0.132812 39.2806 0.10625 39.2551 0.10625C39.2551 0.10625 39.2296 0.10625 39.2296 0.0796875C39.2041 0.053125 39.1786 0.053125 39.1531 0.053125H39.1276C39.0765 0 39.051 0 39 0C38.949 0 38.9235 0 38.8724 0.0265625H38.8469C38.8214 0.0265625 38.7959 0.053125 38.7704 0.053125C38.7704 0.053125 38.7449 0.053125 38.7449 0.0796875C38.7194 0.10625 38.6939 0.10625 38.6684 0.132812H38.6429C38.6173 0.159375 38.5918 0.185937 38.5663 0.239062L29.0765 16.6547C29.0765 16.6547 29.0765 16.6812 29.051 16.6812C29.051 16.7078 29.0255 16.7078 29.0255 16.7344V16.7875C29.0255 16.8141 29.0255 16.8141 29 16.8406V17.0531C29 17.0797 29 17.0797 29.0255 17.1063V17.1328C29.051 17.1859 29.0765 17.2125 29.102 17.2391L29.2041 17.3453C29.2041 17.3453 29.2296 17.3453 29.2296 17.3719L38.7449 23.1625H38.7704C38.7959 23.1891 38.8214 23.1891 38.8469 23.1891H38.8724C38.9235 23.1891 38.949 23.2156 39 23.2156C39.051 23.2156 39.0765 23.2156 39.1276 23.1891H39.1531C39.1786 23.1891 39.2041 23.1625 39.2296 23.1625H39.2551L48.7449 17.3984C48.7704 17.3984 48.7704 17.3719 48.7959 17.3719L48.898 17.2656C48.898 17.2391 48.9235 17.2391 48.9235 17.2125C48.9235 17.1859 48.949 17.1859 48.949 17.1594C48.949 17.1328 48.949 17.1328 48.9745 17.1063C48.9745 17.0797 48.9745 17.0797 49 17.0531V16.8406ZM38.4898 12.1125L30.8112 15.7516L38.4898 2.44375V12.1125ZM38.4898 13.2812V21.7812L30.6327 17L38.4898 13.2812ZM39.5102 13.2812L47.3673 17L39.5102 21.7812V13.2812ZM39.5102 12.1125V2.44375L47.1888 15.7516L39.5102 12.1125Z" fill="white"/>
<path d="M48.2092 19.125L39 24.8891L29.7908 19.125C29.5867 18.9922 29.3061 19.0453 29.1531 19.2313C29 19.4172 28.9745 19.6828 29.102 19.8953L38.5918 33.7609L38.6173 33.7875C38.6429 33.8141 38.6429 33.8406 38.6684 33.8406L38.6939 33.8672C38.7194 33.8937 38.7449 33.8937 38.7449 33.9203C38.7449 33.9203 38.7704 33.9203 38.7704 33.9469C38.7959 33.9469 38.8214 33.9734 38.8469 33.9734H38.8725C38.898 33.9734 38.949 34 38.9745 34C39.0255 34 39.051 34 39.0765 33.9734H39.102C39.1276 33.9734 39.1531 33.9469 39.1786 33.9469C39.1786 33.9469 39.2041 33.9469 39.2041 33.9203C39.2296 33.9203 39.2551 33.8937 39.2551 33.8672L39.3571 33.7609L48.8469 19.8953C48.9745 19.6828 48.9745 19.4172 48.7959 19.2313C48.6174 19.0453 48.4388 19.0187 48.2092 19.125ZM38.4898 25.7922V31.7953L31.3469 21.3563L38.4898 25.7922ZM39.5102 31.7953V25.7922L46.6531 21.3297L39.5102 31.7953Z" fill="white"/>
<path d="M7.04 52.3181C7.04 52.4832 6.896 52.6175 6.724 52.6175H0.636C0.788 54.0611 1.92 55.378 3.512 55.378C4.6 55.378 5.408 54.9787 6.016 54.1456C6.104 54.0304 6.236 53.9575 6.404 54.0266C6.496 54.065 6.56 54.1456 6.576 54.2377C6.592 54.3337 6.564 54.3875 6.536 54.4412C5.924 55.4663 4.704 55.9693 3.508 55.9693C1.46 55.9693 0 54.2109 0 52.3296C0 50.4483 1.46 48.6899 3.508 48.6899C5.556 48.6861 7.036 50.4406 7.04 52.3181ZM6.388 52.034C6.256 50.5904 5.104 49.2735 3.512 49.2735C1.92 49.2735 0.788 50.5904 0.636 52.034H6.388ZM14.428 48.832C14.604 48.832 14.732 48.9778 14.732 49.1237C14.732 49.2927 14.6 49.4155 14.428 49.4155H12.796V55.5623C12.796 55.7082 12.664 55.8541 12.492 55.8541C12.316 55.8541 12.188 55.7082 12.188 55.5623V49.4155H10.62C10.444 49.4155 10.316 49.2888 10.316 49.1237C10.316 48.9778 10.448 48.832 10.62 48.832H12.188V46.5821C12.188 46.44 12.288 46.3095 12.432 46.2865C12.636 46.2558 12.796 46.3901 12.796 46.5744V48.832H14.428ZM24.384 51.8036V55.5278C24.384 55.6967 24.232 55.8195 24.08 55.8195C23.904 55.8195 23.776 55.6929 23.776 55.5278V51.8036C23.776 50.5481 23.036 49.2927 21.576 49.2927C19.704 49.2927 18.896 50.863 19.004 52.4716C19.004 52.5139 19.024 52.702 19.024 52.7212V55.5162C19.024 55.6583 18.924 55.7888 18.78 55.8119C18.576 55.8426 18.416 55.7082 18.416 55.5239V43.2918C18.416 43.1459 18.548 43 18.72 43C18.896 43 19.024 43.1459 19.024 43.2918V50.2141C19.548 49.3157 20.484 48.7091 21.572 48.7091C23.36 48.7091 24.384 50.2141 24.384 51.8036ZM35.3 52.3181C35.3 52.4832 35.156 52.6175 34.984 52.6175H28.892C29.044 54.0611 30.176 55.378 31.768 55.378C32.856 55.378 33.664 54.9787 34.272 54.1456C34.36 54.0304 34.492 53.9575 34.66 54.0266C34.752 54.065 34.816 54.1456 34.832 54.2377C34.848 54.3337 34.82 54.3875 34.792 54.4412C34.18 55.4663 32.96 55.9693 31.764 55.9693C29.716 55.9693 28.256 54.2109 28.256 52.3296C28.256 50.4483 29.716 48.6899 31.764 48.6899C33.816 48.6861 35.296 50.4406 35.3 52.3181ZM34.644 52.034C34.512 50.5904 33.36 49.2735 31.768 49.2735C30.176 49.2735 29.044 50.5904 28.892 52.034H34.644ZM42.772 49.1045C42.772 49.2927 42.664 49.3963 42.488 49.4194C40.7 49.6689 39.896 51.0703 39.896 52.702V55.497C39.896 55.6391 39.796 55.7696 39.652 55.7927C39.448 55.8234 39.288 55.689 39.288 55.5047V49.1353C39.288 48.9932 39.388 48.8627 39.532 48.8396C39.736 48.8089 39.896 48.9433 39.896 49.1276V50.4253C40.396 49.6113 41.4 48.8358 42.444 48.8358C42.596 48.832 42.772 48.9395 42.772 49.1045ZM52.772 52.3181C52.772 52.4832 52.628 52.6175 52.456 52.6175H46.368C46.52 54.0611 47.652 55.378 49.244 55.378C50.332 55.378 51.14 54.9787 51.748 54.1456C51.836 54.0304 51.968 53.9575 52.136 54.0266C52.228 54.065 52.292 54.1456 52.308 54.2377C52.324 54.3337 52.296 54.3875 52.268 54.4412C51.656 55.4663 50.436 55.9693 49.24 55.9693C47.192 55.9693 45.732 54.2109 45.732 52.3296C45.732 50.4483 47.192 48.6899 49.24 48.6899C51.288 48.6861 52.768 50.4406 52.772 52.3181ZM52.12 52.034C51.988 50.5904 50.836 49.2735 49.244 49.2735C47.652 49.2735 46.52 50.5904 46.368 52.034H52.12ZM62.6 49.1775V55.5623C62.6 55.7312 62.448 55.8541 62.296 55.8541C62.12 55.8541 61.992 55.7274 61.992 55.5623V54.3491C61.492 55.3128 60.596 56 59.464 56C57.656 56 56.652 54.495 56.652 52.9055V49.1621C56.652 49.0162 56.784 48.8703 56.956 48.8703C57.132 48.8703 57.26 49.0162 57.26 49.1621V52.9055C57.26 54.161 58 55.4164 59.46 55.4164C61.508 55.4164 61.988 53.5774 61.988 51.5464V49.1621C61.988 48.9932 62.164 48.8204 62.38 48.8819C62.512 48.9241 62.6 49.047 62.6 49.1775ZM78 51.7806V55.5239C78 55.6929 77.848 55.8157 77.696 55.8157C77.52 55.8157 77.392 55.689 77.392 55.5239V51.7806C77.392 50.5251 76.652 49.2927 75.192 49.2927C73.36 49.2927 72.664 51.1739 72.664 52.6367V55.5239C72.664 55.6929 72.512 55.8157 72.36 55.8157C72.184 55.8157 72.056 55.689 72.056 55.5239V51.7806C72.056 50.5251 71.316 49.2927 69.856 49.2927C68.004 49.2927 67.24 50.694 67.308 52.5561C67.308 52.5983 67.328 52.6828 67.308 52.702V55.5162C67.308 55.6583 67.208 55.7888 67.06 55.8119C66.856 55.8426 66.696 55.7082 66.696 55.5239V49.1353C66.696 48.9932 66.796 48.8627 66.94 48.8396C67.144 48.8089 67.304 48.9433 67.304 49.1276V50.1949C67.828 49.2965 68.764 48.7091 69.852 48.7091C71.092 48.7091 72.052 49.4616 72.444 50.5712C72.944 49.4846 73.924 48.7091 75.188 48.7091C76.976 48.7091 78 50.1911 78 51.7806Z" fill="white"/>
</svg>
