<svg width="54" height="56" viewBox="0 0 54 56" fill="none" xmlns="http://www.w3.org/2000/svg">
<path d="M26.6787 34.1695C36.1144 34.1695 43.7635 26.5204 43.7635 17.0847C43.7635 7.6491 36.1144 0 26.6787 0C17.2431 0 9.59399 7.6491 9.59399 17.0847C9.59399 26.5204 17.2431 34.1695 26.6787 34.1695Z" fill="#26A17B"/>
<path d="M28.4997 18.6614V18.6586C28.3816 18.6669 27.7718 18.7026 26.4149 18.7026C25.33 18.7026 24.5691 18.6724 24.2999 18.6586V18.6614C20.1276 18.4773 17.0156 17.7522 17.0156 16.8815C17.0156 16.0135 20.1304 15.2856 24.2999 15.1016V17.939C24.5719 17.9582 25.3547 18.0049 26.4341 18.0049C27.7306 18.0049 28.3788 17.95 28.4997 17.939V15.1043C32.6638 15.2911 35.7676 16.0163 35.7676 16.8842C35.7676 17.7522 32.661 18.4773 28.4997 18.6641V18.6614ZM28.4997 14.8104V12.2724H34.3091V8.40228H18.4933V12.2724H24.3027V14.8104C19.581 15.0274 16.0322 15.9613 16.0322 17.082C16.0322 18.2027 19.5838 19.1366 24.3027 19.3563V27.4921H28.5024V19.3563C33.2159 19.1393 36.7592 18.2054 36.7592 17.0847C36.7592 15.9668 33.2159 15.0302 28.5024 14.8132" fill="white"/>
<path d="M4.01135 44.0841V46.6925H6.56259V48.6497H3.99378V52.6182C3.99378 53.4946 4.48048 53.9224 5.19384 53.9224C5.55052 53.9224 5.96343 53.8106 6.30078 53.643L6.93859 55.581C6.28321 55.8411 5.73853 55.9528 5.04449 55.9721C3.03794 56.0471 1.72543 54.9105 1.72543 52.6182V48.6497H0V46.6925H1.72543V44.3268L4.01135 44.0841ZM47.9956 46.5703L48.1643 47.6318C48.8776 46.4952 49.8335 46.3276 50.7717 46.3276C51.7276 46.3276 52.6465 46.6995 53.1525 47.2023L52.1212 49.177C51.652 48.7859 51.2215 48.5799 50.4713 48.5799C49.2712 48.5799 48.1643 49.2136 48.1643 50.9089V55.7538H45.8766V46.5668L47.9956 46.5703ZM42.3889 50.0918C42.2395 48.8994 41.3012 48.3023 39.9887 48.3023C38.7518 48.3023 37.7379 48.8994 37.4006 50.0918H42.3889ZM37.3637 51.9739C37.513 53.1105 38.5075 53.9311 40.1205 53.9311C40.9639 53.9311 42.0708 53.6133 42.5962 53.0738L44.058 54.509C43.0829 55.5146 41.4892 56 40.0818 56C36.8946 56 34.9987 54.0428 34.9987 51.0992C34.9987 48.304 36.9121 46.291 39.9132 46.291C43.0073 46.291 44.9401 48.1923 44.5834 51.9739H37.3637ZM27.2747 42.7119V47.8169C28.1005 46.7554 29.1126 46.4376 30.1633 46.4376C32.7883 46.4376 33.9515 48.208 33.9515 50.9107V55.7556H31.6638V50.9299C31.6638 49.252 30.7818 48.5449 29.5624 48.5449C28.2112 48.5449 27.2747 49.6815 27.2747 51.0608V55.7573H24.987V42.7136L27.2747 42.7119ZM21.1988 43.9794V46.5878H23.7501V48.5449H21.1812V52.5134C21.1812 53.3899 21.6697 53.8176 22.3813 53.8176C22.738 53.8176 23.1509 53.7059 23.4883 53.5383L24.1261 55.4762C23.4707 55.7364 22.926 55.8481 22.232 55.8673C20.2254 55.9424 18.9129 54.804 18.9129 52.5134V48.5449H17.1875V46.5878H18.9129V44.2221L21.1988 43.9794ZM14.8787 50.0918C14.7294 48.8994 13.7911 48.3023 12.4786 48.3023C11.2416 48.3023 10.2278 48.8994 9.89044 50.0918H14.8787ZM9.85354 51.9739C10.0029 53.1105 10.9974 53.9311 12.6104 53.9311C13.4537 53.9311 14.5607 53.6133 15.086 53.0738L16.5479 54.509C15.5727 55.5146 13.9791 56 12.5717 56C9.38265 56 7.48855 54.0428 7.48855 51.0992C7.48855 48.304 9.40198 46.291 12.4013 46.291C15.4954 46.291 17.4264 48.1923 17.0715 51.9739H9.85354Z" fill="white"/>
</svg>
