<svg width="57" height="57" viewBox="0 0 57 57" fill="none" xmlns="http://www.w3.org/2000/svg">
<path d="M5.2273 45.8791H3.80591V55.1743H5.2273V45.8791Z" fill="white"/>
<path d="M11.6047 41.9454H0V43.3668H11.6047V41.9454Z" fill="white"/>
<path d="M7.80115 45.8791H6.37976V55.1743H7.80115V45.8791Z" fill="white"/>
<path d="M47.1353 55.1876H48.5721V49.5879L47.1353 47.9902V55.1876Z" fill="white"/>
<path d="M54.6983 41.9455V52.3227L44.5348 41.0287V55.1876H45.9716V44.8015L56.1373 56.0999V41.9455H54.6983Z" fill="white"/>
<path d="M35.2352 41.9366C31.5836 41.9366 28.613 44.9072 28.613 48.5588C28.613 52.2103 31.5836 55.1809 35.2352 55.1809C38.8867 55.1809 41.8573 52.2103 41.8573 48.5588C41.8573 44.9072 38.8867 41.9366 35.2352 41.9366ZM35.2352 53.7529C32.3704 53.7529 30.0388 51.4236 30.0388 48.5566C30.0388 45.6895 32.3682 43.3602 35.2352 43.3602C38.1022 43.3602 40.4315 45.6895 40.4315 48.5566C40.4315 51.4236 38.1 53.7529 35.2352 53.7529Z" fill="white"/>
<path d="M35.2352 47.6045C34.7107 47.6045 34.281 48.0342 34.281 48.5587C34.281 49.0832 34.7107 49.5129 35.2352 49.5129C35.7597 49.5129 36.1894 49.0832 36.1894 48.5587C36.1894 48.0342 35.7641 47.6045 35.2352 47.6045Z" fill="white"/>
<path d="M26.1206 46.0046C26.1206 43.7657 24.3114 41.9454 22.0878 41.9454H14.5115V55.1875H15.9263V43.3822H22.0878C23.5136 43.3822 24.675 44.559 24.675 46.0024C24.675 47.4393 23.5291 48.6116 22.1165 48.6271L17.0898 48.6248V55.1853H18.5046V50.0617H21.819L24.5251 55.1853H26.1669L23.3417 49.8611C24.9835 49.3212 26.1206 47.7478 26.1206 46.0046Z" fill="white"/>
<path d="M37.4763 4.67627L12.0675 0L25.4374 33.6485L44.0698 10.948L37.4763 4.67627ZM37.0664 6.73895L40.9538 10.4324L30.3208 12.3584L37.0664 6.73895ZM28.0136 11.9706L16.8077 2.67751L35.1227 6.04698L28.0136 11.9706ZM27.2158 13.6167L25.3889 28.721L15.5361 3.92922L27.2158 13.6167ZM28.9061 14.4167L40.6783 12.2857L27.1761 28.7386L28.9061 14.4167Z" fill="#EB0029"/>
</svg>
